#N canvas 0 54 1440 820 10;
#X obj 36 35 adc~;
#X obj 35 86 ave~;
#X obj 34 134 sendFFT;
#X obj 73 115 bng 15 250 50 0 empty empty empty 17 7 0 10 -262144 -1
-1;
#X connect 0 0 1 0;
#X connect 0 1 1 1;
#X connect 1 0 2 0;
#X connect 3 0 2 1;
