#N canvas 546 337 756 504 10;
#X obj 146 181 rfft~;
#X obj 147 240 *~;
#X obj 174 240 *~;
#X obj 147 278 +~;
#X obj 146 326 tabsend~ magnitude;
#X obj 13 143 table magnitude;
#X obj 14 86 block~ 2048;
#X obj 348 283 sendOSC;
#X floatatom 348 316 5 0 0 0 - - -;
#X floatatom 387 316 5 0 0 0 - - -;
#X obj 348 135 tabdump magnitude;
#X obj 348 161 list prepend /this/is/the/path;
#X obj 348 201 list trim;
#X obj 348 182 list prepend send;
#X obj 348 107 metro 46.4399;
#X obj 348 84 tgl 15 0 empty empty empty 17 7 0 10 -262144 -1 -1 0
1;
#X obj 146 46 inlet~;
#X obj 378 42 inlet;
#X text 429 42 bang to initialize;
#X msg 378 251 connect localhost 8666;
#X connect 0 0 1 0;
#X connect 0 0 1 1;
#X connect 0 1 2 0;
#X connect 0 1 2 1;
#X connect 1 0 3 0;
#X connect 2 0 3 1;
#X connect 3 0 4 0;
#X connect 7 0 8 0;
#X connect 7 1 9 0;
#X connect 10 0 11 0;
#X connect 11 0 13 0;
#X connect 12 0 7 0;
#X connect 13 0 12 0;
#X connect 14 0 10 0;
#X connect 15 0 14 0;
#X connect 16 0 0 0;
#X connect 17 0 15 0;
#X connect 17 0 19 0;
#X connect 19 0 7 0;
